<?xml version="1.0" encoding="UTF-8" standalone="no"?><!DOCTYPE svg PUBLIC "-//W3C//DTD SVG 1.1//EN" "http://www.w3.org/Graphics/SVG/1.1/DTD/svg11.dtd"><svg width="100%" height="100%" viewBox="0 0 96 96" version="1.1" xmlns="http://www.w3.org/2000/svg" xmlns:xlink="http://www.w3.org/1999/xlink" xml:space="preserve" xmlns:serif="http://www.serif.com/" style="fill-rule:evenodd;clip-rule:evenodd;stroke-linejoin:round;stroke-miterlimit:2;"><rect id="Artboard1" x="-860" y="-189" width="1066.03" height="345.855" style="fill:none;"/><g id="greatsword"></g><g id="longsword"></g><g id="sword_and_shield"></g><g id="dual_blades"></g><g id="hammer"></g><g id="hunting_horn"></g><g id="lance"></g><g id="gun_lance"></g><g id="switch_axe"></g><g id="charge_blade"></g><g id="insect_glaive"></g><g id="light_bowgun"></g><g id="heavy-bowgun"></g><g id="bow"><path d="M77.658,39.652l-4.163,6.364l-10.448,0l3.502,-6.364l11.109,-0Z" style="fill:#fff;"/><path d="M77.658,54.905l-4.163,-6.364l-10.448,0l3.502,6.364l11.109,0Z" style="fill:#fff;"/><path d="M59.805,12.512c0.584,4.776 0.519,9.444 -0,14.037l-4.289,-0c0.691,-3.527 0.965,-7.147 -0,-11.043l-2.517,-0.655l0.011,-0.87l2.437,-1.435l4.358,-0.034Z" style="fill:#fff;"/><path d="M59.77,26.549c0,-0 -0.095,2.322 -0.483,2.98c-0.352,0.597 -1.843,0.965 -1.843,0.965l-25.731,0l0,-3.945l1.447,-1.024l15.836,0l1.724,1.024l9.05,-0Z" style="fill:#fff;"/><path d="M35.395,30.494l0,3.436l4.04,5.47l-0.421,15.18l-3.682,-0l0.042,-14.969l-3.661,-5.681l0,-3.436l3.682,0Z" style="fill:#fff;"/><path d="M59.805,82.328c0.584,-4.777 0.519,-9.445 -0,-14.037l-4.289,-0c0.691,3.527 0.965,7.147 -0,11.042l-2.517,0.655l0.011,0.871l2.437,1.434l4.358,0.035Z" style="fill:#fff;"/><path d="M59.77,68.291c0,-0 -0.095,-2.323 -0.483,-2.98c-0.352,-0.598 -1.843,-0.966 -1.843,-0.966l-25.731,0l0,3.946l1.447,1.023l15.836,0l1.724,-1.023l9.05,-0Z" style="fill:#fff;"/><rect x="26.733" y="46.016" width="46.762" height="2.525" style="fill:#fff;"/><path d="M27.379,44.542l-0,5.474l-5.841,0.14l-4.165,-1.831l-0.04,-1.789l4.205,-2.134l5.841,0.14Z" style="fill:#fff;"/><path d="M35.395,64.345l0,-3.435l4.04,-5.471l-0.421,-15.179l-3.682,-0l0.042,14.969l-3.661,5.681l0,3.435l3.682,0Z" style="fill:#fff;"/></g></svg>