<?xml version="1.0" encoding="UTF-8" standalone="no"?><!DOCTYPE svg PUBLIC "-//W3C//DTD SVG 1.1//EN" "http://www.w3.org/Graphics/SVG/1.1/DTD/svg11.dtd"><svg width="100%" height="100%" viewBox="0 0 96 96" version="1.1" xmlns="http://www.w3.org/2000/svg" xmlns:xlink="http://www.w3.org/1999/xlink" xml:space="preserve" xmlns:serif="http://www.serif.com/" style="fill-rule:evenodd;clip-rule:evenodd;stroke-linejoin:round;stroke-miterlimit:2;"><rect id="Artboard1" x="-344" y="-189" width="1066.03" height="345.855" style="fill:none;"/><g id="greatsword"></g><g id="longsword"></g><g id="sword_and_shield"></g><g id="dual_blades"></g><g id="hammer"></g><g id="hunting_horn"></g><g id="lance"></g><g id="gun_lance"></g><g id="switch_axe"></g><g id="charge_blade"><path d="M38.468,16.523l-0,41.305l-6.105,0l-12.519,-10.498l-0,-29.154l-0.473,-1.653l19.097,0Z" style="fill:#fff;"/><path d="M57.314,16.523l-0,41.305l6.104,0l12.52,-10.498l-0,-29.154l0.473,-1.653l-19.097,0Z" style="fill:#fff;"/><path d="M59.681,23.916l-0,16.671l-10.457,8.626l-2.848,0l-10.538,-8.626l-0,-16.671l23.843,-0Z" style="fill:#fff;"/><rect x="45.816" y="46.439" width="4.734" height="30.615" style="fill:#fff;"/><rect x="44.133" y="74.003" width="8.206" height="4.313" style="fill:#fff;"/><rect x="44.133" y="57.828" width="8.206" height="11.44" style="fill:#fff;"/></g><g id="insect_glaive"></g><g id="light_bowgun"></g><g id="heavy-bowgun"></g><g id="bow"></g></svg>