<?xml version="1.0" encoding="UTF-8" standalone="no"?><!DOCTYPE svg PUBLIC "-//W3C//DTD SVG 1.1//EN" "http://www.w3.org/Graphics/SVG/1.1/DTD/svg11.dtd"><svg width="100%" height="100%" viewBox="0 0 96 96" version="1.1" xmlns="http://www.w3.org/2000/svg" xmlns:xlink="http://www.w3.org/1999/xlink" xml:space="preserve" xmlns:serif="http://www.serif.com/" style="fill-rule:evenodd;clip-rule:evenodd;stroke-linecap:round;stroke-linejoin:round;stroke-miterlimit:1.5;"><rect id="items" x="-220" y="-62" width="1066.03" height="344.809" style="fill:none;"/><g id="helm"></g><g id="chest"><path d="M69.854,49.257l-2.672,8.113l-0,8.017l2.672,3.244l-43.824,0l2.672,-3.002l0,-9.086l-2.672,-7.286l6.043,0l0,-2.364l31.316,0l-0,2.364l6.465,0Z" style="fill:#fff;stroke:#000;stroke-width:1px;"/><path d="M69.854,25.724l0,24.384l-43.824,-0l0,-24.384l14.973,0l-0,-6.413l14.162,0.047l0,6.366l14.689,0Z" style="fill:#fff;stroke:#000;stroke-width:1px;"/><path d="M61.616,14.421l-0,13.254l8.685,7.035l5.589,-0l-0,-20.289l-14.274,0Z" style="fill:#fff;stroke:#000;stroke-width:1px;"/><path d="M34.716,14.421l-0,13.254l-8.686,7.035l-5.588,-0l-0,-20.289l14.274,0Z" style="fill:#fff;stroke:#000;stroke-width:1px;"/><rect x="20.442" y="74.541" width="55.448" height="5.909" style="fill:#fff;stroke:#000;stroke-width:1px;"/><path d="M72.897,68.631l2.993,5.91l-55.448,-0l2.993,-5.91l49.462,0Z" style="fill:#fff;stroke:#000;stroke-width:1px;"/></g><g id="arm"></g><g id="waist"></g><g id="leg"></g></svg>