<?xml version="1.0" encoding="UTF-8" standalone="no"?><!DOCTYPE svg PUBLIC "-//W3C//DTD SVG 1.1//EN" "http://www.w3.org/Graphics/SVG/1.1/DTD/svg11.dtd"><svg width="100%" height="100%" viewBox="0 0 96 96" version="1.1" xmlns="http://www.w3.org/2000/svg" xmlns:xlink="http://www.w3.org/1999/xlink" xml:space="preserve" xmlns:serif="http://www.serif.com/" style="fill-rule:evenodd;clip-rule:evenodd;stroke-linejoin:round;stroke-miterlimit:2;"><rect id="Artboard1" x="-473" y="-61" width="1066.03" height="345.855" style="fill:none;"/><g id="greatsword"></g><g id="longsword"></g><g id="sword_and_shield"></g><g id="dual_blades"><path d="M45.708,61.589l0.79,2.947l-14.405,3.86l-0.79,-2.947l14.405,-3.86Z" style="fill:#fff;"/><path d="M42.289,65.664l2.206,8.231l-5.509,1.476l-2.206,-8.231l5.509,-1.476Z" style="fill:#fff;"/><path d="M40.649,70.563c2.518,-0.674 5.05,0.602 5.652,2.848c0.602,2.247 -0.953,4.618 -3.47,5.292c-2.518,0.675 -5.05,-0.601 -5.652,-2.847c-0.602,-2.247 0.953,-4.618 3.47,-5.293Z" style="fill:#fff;"/><path d="M37.951,17.987c-3.418,5.607 -6.773,12.973 -3.255,21.296l7.352,23.287l-7.419,1.988c-8.687,-21.507 -11.055,-39.153 3.322,-46.571Z" style="fill:#fff;"/><path d="M50.797,61.589l-0.79,2.947l14.405,3.86l0.789,-2.947l-14.404,-3.86Z" style="fill:#fff;"/><path d="M54.215,65.664l-2.205,8.231l5.509,1.476l2.205,-8.231l-5.509,-1.476Z" style="fill:#fff;"/><path d="M55.855,70.563c-2.517,-0.674 -5.05,0.602 -5.652,2.848c-0.602,2.247 0.953,4.618 3.471,5.292c2.517,0.675 5.05,-0.601 5.651,-2.847c0.602,-2.247 -0.953,-4.618 -3.47,-5.293Z" style="fill:#fff;"/><path d="M58.554,17.987c3.418,5.607 6.772,12.973 3.254,21.296l-7.351,23.287l7.418,1.988c8.687,-21.507 11.055,-39.153 -3.321,-46.571Z" style="fill:#fff;"/></g><g id="hammer"></g><g id="hunting_horn"></g><g id="lance"></g><g id="gun_lance"></g><g id="switch_axe"></g><g id="charge_blade"></g><g id="insect_glaive"></g><g id="light_bowgun"></g><g id="heavy-bowgun"></g><g id="bow"></g></svg>