<?xml version="1.0" encoding="UTF-8" standalone="no"?><!DOCTYPE svg PUBLIC "-//W3C//DTD SVG 1.1//EN" "http://www.w3.org/Graphics/SVG/1.1/DTD/svg11.dtd"><svg width="100%" height="100%" viewBox="0 0 96 96" version="1.1" xmlns="http://www.w3.org/2000/svg" xmlns:xlink="http://www.w3.org/1999/xlink" xml:space="preserve" xmlns:serif="http://www.serif.com/" style="fill-rule:evenodd;clip-rule:evenodd;stroke-linejoin:round;stroke-miterlimit:2;"><rect id="Artboard1" x="-98" y="-61" width="1066.03" height="345.855" style="fill:none;"/><g id="greatsword"><path d="M53.955,61.756c-1.18,2.15 -0.695,9.674 0.588,12.09c0.763,1.437 2.011,1.635 2.011,1.635l6.284,-0.116l0.06,6.509l-6.292,0.342c-0,0 -5.466,0.029 -7.801,-2.062c-3.096,-2.773 -3.492,-8.131 -3.581,-15.185l8.731,-3.213Z" style="fill:#fff;"/><path d="M71.16,8.151c-8.538,13.73 -17.516,30.151 -14.825,50.305c0.089,0.67 1.284,2.481 1.386,3.16l-31.113,11.934c-0.62,-28.755 0.709,-66.323 44.552,-65.399Z" style="fill:#fff;"/></g><g id="longsword"></g><g id="sword_and_shield"></g><g id="dual_blades"></g><g id="hammer"></g><g id="hunting_horn"></g><g id="lance"></g><g id="gun_lance"></g><g id="switch_axe"></g><g id="charge_blade"></g><g id="insect_glaive"></g><g id="light_bowgun"></g><g id="heavy-bowgun"></g><g id="bow"></g></svg>