<?xml version="1.0" encoding="UTF-8" standalone="no"?><!DOCTYPE svg PUBLIC "-//W3C//DTD SVG 1.1//EN" "http://www.w3.org/Graphics/SVG/1.1/DTD/svg11.dtd"><svg width="100%" height="100%" viewBox="0 0 96 96" version="1.1" xmlns="http://www.w3.org/2000/svg" xmlns:xlink="http://www.w3.org/1999/xlink" xml:space="preserve" xmlns:serif="http://www.serif.com/" style="fill-rule:evenodd;clip-rule:evenodd;stroke-linejoin:round;stroke-miterlimit:2;"><rect id="Artboard1" x="-98" y="-189" width="1066.03" height="345.855" style="fill:none;"/><g id="greatsword"></g><g id="longsword"></g><g id="sword_and_shield"></g><g id="dual_blades"></g><g id="hammer"></g><g id="hunting_horn"></g><g id="lance"></g><g id="gun_lance"><path d="M89.466,29.515l0.053,6.198l-5.372,9.328l-27.386,-0l-6.404,-9.882l-0.073,-5.644c6.486,-0.317 11.963,-3.646 16.484,-7.614l7.268,-0c3.615,2.875 8.924,6.371 15.43,7.614Z" style="fill:#fff;"/><path d="M83.986,45.041l-0,19.304l-6.655,10.179l-12.552,-0l-8.015,-9.706l-0,-19.777l27.222,-0Z" style="fill:#fff;"/><path d="M23.099,3.841l-0,28.287l-10.653,-0l0,-18.179l10.653,-10.108Z" style="fill:#fff;"/><rect x="24.022" y="64.735" width="9.753" height="12.214" style="fill:#fff;"/><path d="M33.775,76.95l-0,2.746l-2.462,1.894l-9.847,-0l-0,-4.64l12.309,-0Z" style="fill:#fff;"/><rect x="18.758" y="13.25" width="20.713" height="4.734" style="fill:#fff;"/><path d="M35.091,17.984l-0,40.881l8.486,8.143l-31.131,-0.076l10.691,-8.067l-0,-40.881l11.954,0Z" style="fill:#fff;"/><rect x="27.064" y="47.42" width="3.56" height="9.229" style="fill:#fff;"/><rect x="38.956" y="50.21" width="5.53" height="7.423" style="fill:#fff;"/><rect x="13.355" y="50.21" width="5.326" height="6.439" style="fill:#fff;"/><rect x="13.355" y="56.648" width="31.131" height="4.09" style="fill:#fff;"/></g><g id="switch_axe"></g><g id="charge_blade"></g><g id="insect_glaive"></g><g id="light_bowgun"></g><g id="heavy-bowgun"></g><g id="bow"></g></svg>