<?xml version="1.0" encoding="UTF-8" standalone="no"?><!DOCTYPE svg PUBLIC "-//W3C//DTD SVG 1.1//EN" "http://www.w3.org/Graphics/SVG/1.1/DTD/svg11.dtd"><svg width="100%" height="100%" viewBox="0 0 96 96" version="1.1" xmlns="http://www.w3.org/2000/svg" xmlns:xlink="http://www.w3.org/1999/xlink" xml:space="preserve" xmlns:serif="http://www.serif.com/" style="fill-rule:evenodd;clip-rule:evenodd;stroke-linecap:round;stroke-linejoin:round;stroke-miterlimit:1.5;"><rect id="items" x="-98" y="-62" width="1066.03" height="344.809" style="fill:none;"/><g id="helm"><path d="M75.528,24.414l-0.718,27.521l-9.975,13.483l-25.579,0l-7.225,-23.571l19.331,-0.23l0.006,-6.332l-21.348,-0l-3.332,-10.871l14.339,-9.402l17.106,0l17.395,9.402Z" style="fill:#fff;stroke:#000;stroke-width:1px;"/><path d="M75.528,29.956l0,5.329l-53.161,-0l4.321,-10.864l32.783,0.502l16.057,5.033Z" style="fill:#fff;stroke:#000;stroke-width:1px;"/><rect x="35.441" y="70.641" width="31.854" height="9.218" style="fill:#fff;stroke:#000;stroke-width:1px;"/><rect x="37.902" y="63.459" width="26.933" height="7.182" style="fill:#fff;stroke:#000;stroke-width:1px;"/><path d="M59.267,36.829l-20.102,32.183l-18.55,-18.775l-0.962,-8.39l39.614,-5.018Z" style="fill:#fff;stroke:#000;stroke-width:1px;"/><rect x="22.367" y="35.285" width="29.505" height="6.798"/><path d="M53.88,29.853l3.809,1.41l1.578,3.406l-1.578,3.405l-3.809,1.41l-3.809,-1.41l-1.578,-3.405l1.578,-3.406l3.809,-1.41Z" style="fill:#fff;stroke:#000;stroke-width:0.95px;"/></g><g id="chest"></g><g id="arm"></g><g id="waist"></g><g id="leg"></g></svg>