<?xml version="1.0" encoding="UTF-8" standalone="no"?><!DOCTYPE svg PUBLIC "-//W3C//DTD SVG 1.1//EN" "http://www.w3.org/Graphics/SVG/1.1/DTD/svg11.dtd"><svg width="100%" height="100%" viewBox="0 0 96 96" version="1.1" xmlns="http://www.w3.org/2000/svg" xmlns:xlink="http://www.w3.org/1999/xlink" xml:space="preserve" xmlns:serif="http://www.serif.com/" style="fill-rule:evenodd;clip-rule:evenodd;stroke-linejoin:round;stroke-miterlimit:2;"><rect id="Artboard1" x="-730" y="-189" width="1066.03" height="345.855" style="fill:none;"/><g id="greatsword"></g><g id="longsword"></g><g id="sword_and_shield"></g><g id="dual_blades"></g><g id="hammer"></g><g id="hunting_horn"></g><g id="lance"></g><g id="gun_lance"></g><g id="switch_axe"></g><g id="charge_blade"></g><g id="insect_glaive"></g><g id="light_bowgun"></g><g id="heavy-bowgun"><rect x="56.024" y="53.07" width="10.651" height="2.26" style="fill:#fff;"/><rect x="64.908" y="55.329" width="1.767" height="9.931" style="fill:#fff;"/><rect x="66.675" y="63.325" width="5.555" height="1.936" style="fill:#fff;"/><path d="M39.708,24.142l-0,8.801l-8.325,-3.169l-3.457,-0l-0,22.843l-7.105,0l-4.906,-1.24l-0,-2.715l5.236,-2.343l1.86,-4.993l-1.86,-7.813l0,-9.371l18.557,0Z" style="fill:#fff;"/><path d="M56.024,24.142l0,8.801l8.325,-3.169l3.457,-0l0,22.843l7.104,0l4.907,-1.24l0,-2.715l-5.236,-2.343l-1.86,-4.993l1.86,-7.813l-0,-9.371l-18.557,0Z" style="fill:#fff;"/><path d="M54.543,16.713l-0,4.971l1.481,0.684l0,10.652l-1.616,-0l0.054,5.36l1.562,-0l0,25.282l3.872,-0l-0.169,14.465l-22.46,-0l-0.337,-14.549l2.778,-0l-0,-25.198l1.562,-0l0.054,-5.253l-1.616,0l-0,-10.102l1.279,-1.077l0.135,-5.235l13.421,-0Z" style="fill:#fff;"/></g><g id="bow"></g></svg>