<?xml version="1.0" encoding="UTF-8" standalone="no"?><!DOCTYPE svg PUBLIC "-//W3C//DTD SVG 1.1//EN" "http://www.w3.org/Graphics/SVG/1.1/DTD/svg11.dtd"><svg width="100%" height="100%" viewBox="0 0 154 156" version="1.1" xmlns="http://www.w3.org/2000/svg" xmlns:xlink="http://www.w3.org/1999/xlink" xml:space="preserve" xmlns:serif="http://www.serif.com/" style="fill-rule:evenodd;clip-rule:evenodd;stroke-linecap:round;stroke-linejoin:round;stroke-miterlimit:1.5;"><g id="hunter_clock_background"><ellipse cx="76.875" cy="77.625" rx="72.375" ry="73.425" style="fill:#241a0d;stroke:#fff;stroke-width:1.87px;"/><ellipse cx="104.985" cy="26.114" rx="1.829" ry="1.856" style="fill:#fff;"/><ellipse cx="126.697" cy="48.297" rx="1.829" ry="1.856" style="fill:#fff;"/><ellipse cx="134.081" cy="76.028" rx="1.829" ry="1.856" style="fill:#fff;"/><ellipse cx="76.875" cy="77.625" rx="2.826" ry="2.867" style="fill:#fff;"/><ellipse cx="126.697" cy="105.481" rx="1.829" ry="1.856" style="fill:#fff;"/><ellipse cx="104.985" cy="125.798" rx="1.829" ry="1.856" style="fill:#fff;"/><ellipse cx="76.875" cy="134.557" rx="1.829" ry="1.856" style="fill:#fff;"/><ellipse cx="48.704" cy="126.34" rx="1.829" ry="1.856" style="fill:#fff;"/><ellipse cx="20.533" cy="76.134" rx="1.829" ry="1.856" style="fill:#fff;"/><ellipse cx="26.693" cy="106.253" rx="1.829" ry="1.856" style="fill:#fff;"/><path d="M23.289,39.599l6.5,9.663l-9.715,-0.068c0,0 -0.373,0.062 -0.39,0.108c-22.805,64.633 30.562,93.067 57.191,93.067c31.224,0 65.092,-30.371 65.092,-66.995c0,-33.302 -34.497,-62.141 -54.598,-62.141" style="fill:none;stroke:#fff;stroke-width:0.72px;"/><ellipse cx="76.875" cy="77.625" rx="44.889" ry="45.54" style="fill:none;stroke:#635d09;stroke-width:3.72px;"/><ellipse cx="76.875" cy="77.625" rx="33.888" ry="34.38" style="fill:none;stroke:#635d09;stroke-width:1.87px;"/><ellipse cx="76.875" cy="77.625" rx="7.659" ry="7.77" style="fill:none;stroke:#fff;stroke-width:1.87px;"/><path d="M68.647,70.868l-1.109,1.852l-31.212,-19.241l1.11,-1.852l31.211,19.241Z" style="fill:#ea0000;"/><path d="M78.059,68.596l-2.368,-0l-0,-55.363l2.368,-0l0,55.363Z" style="fill:#fff;"/></g></svg>