<?xml version="1.0" encoding="UTF-8" standalone="no"?><!DOCTYPE svg PUBLIC "-//W3C//DTD SVG 1.1//EN" "http://www.w3.org/Graphics/SVG/1.1/DTD/svg11.dtd"><svg width="100%" height="100%" viewBox="0 0 96 96" version="1.1" xmlns="http://www.w3.org/2000/svg" xmlns:xlink="http://www.w3.org/1999/xlink" xml:space="preserve" xmlns:serif="http://www.serif.com/" style="fill-rule:evenodd;clip-rule:evenodd;stroke-linejoin:round;stroke-miterlimit:2;"><rect id="Artboard1" x="-473" y="-189" width="1066.03" height="345.855" style="fill:none;"/><g id="greatsword"></g><g id="longsword"></g><g id="sword_and_shield"></g><g id="dual_blades"></g><g id="hammer"></g><g id="hunting_horn"></g><g id="lance"></g><g id="gun_lance"></g><g id="switch_axe"></g><g id="charge_blade"></g><g id="insect_glaive"><path d="M38.438,73.687l3.978,3.787l-2.82,2.962l-3.977,-3.787l2.819,-2.962Z" style="fill:#fff;"/><path d="M38.997,76.799c-0,-0 0.37,4.708 -2.034,5.831c-3.083,1.442 -14.241,3.055 -16.576,1.308c-1.746,-1.306 -1.555,-7.271 -0.706,-9.059c1.31,-2.758 3.907,-2.374 3.907,-2.374l1.002,-1.666l1.238,0.208l1.2,1.878l4.503,0.758l0.792,-1.862l1.083,0.183l0.741,2.119l4.85,2.676Z" style="fill:#fff;"/><path d="M73.755,38.264l-1.736,2.282l-3.424,-2.606l1.735,-2.282l3.425,2.606Z" style="fill:#fff;"/><path d="M39.685,35.35l1.698,2.955l-0,8.145l-1.698,2.936l-6.01,2.178l-3.921,0l-5.613,-2.178l-1.697,-2.936l-0,-7.869l1.697,-3.231l6.199,-3.515l3.101,0l6.244,3.515Z" style="fill:#fff;"/><path d="M29.492,24.64c-3.341,4.853 -2.391,8.94 -0.245,12.813l-2.134,0.484c-0,-0 -3.621,-6.379 -3.224,-8.595c0.393,-2.2 3.173,-4.562 5.603,-4.702Z" style="fill:#fff;"/><path d="M33.913,24.64c3.341,4.853 2.39,8.94 0.245,12.813l2.134,0.484c0,-0 3.621,-6.379 3.224,-8.595c-0.394,-2.2 -3.173,-4.562 -5.603,-4.702Z" style="fill:#fff;"/><path d="M72.631,38.811l-35.304,42.997l-2.109,-1.86l35.145,-43.394c0.993,-0.978 -1.097,-5.587 -0.119,-7.654c2.643,-5.591 4.931,-13.972 5.263,-18.694c2.47,-1.601 3.59,26.515 -2.876,28.605Z" style="fill:#fff;"/></g><g id="light_bowgun"></g><g id="heavy-bowgun"></g><g id="bow"></g></svg>