<?xml version="1.0" encoding="UTF-8" standalone="no"?><!DOCTYPE svg PUBLIC "-//W3C//DTD SVG 1.1//EN" "http://www.w3.org/Graphics/SVG/1.1/DTD/svg11.dtd"><svg width="100%" height="100%" viewBox="0 0 96 96" version="1.1" xmlns="http://www.w3.org/2000/svg" xmlns:xlink="http://www.w3.org/1999/xlink" xml:space="preserve" xmlns:serif="http://www.serif.com/" style="fill-rule:evenodd;clip-rule:evenodd;stroke-linejoin:round;stroke-miterlimit:2;"><rect id="Artboard1" x="-606" y="-189" width="1066.03" height="345.855" style="fill:none;"/><g id="greatsword"></g><g id="longsword"></g><g id="sword_and_shield"></g><g id="dual_blades"></g><g id="hammer"></g><g id="hunting_horn"></g><g id="lance"></g><g id="gun_lance"></g><g id="switch_axe"></g><g id="charge_blade"></g><g id="insect_glaive"></g><g id="light_bowgun"><circle cx="48.39" cy="18.685" r="1.972" style="fill:#fff;"/><path d="M57.523,26.651l0,14.709l-5.252,18.223l-1.328,5.809l-0,3.8l3.612,6.729l0.05,3.725l-2.503,2.676l-4.84,0.133l-2.598,-2.809l-0.016,-3.594l3.104,-6.86l0,-3.8l-1.527,-5.895l-6.969,-18.137l0,-14.709l18.267,0Z" style="fill:#fff;"/><path d="M48.39,20.657l0.259,5.526l-9.494,0l-5.756,4.66l-0.175,12.193l-10.874,0.15c-0,0 -0.383,-6.957 -0.067,-8.349c0.089,-0.391 4.829,-0.959 4.829,-0.959c0.913,5.902 -0.715,5.007 -2.776,3.074c0,-0 -1.22,2.281 0.113,2.639c1.636,0.44 5.956,0 5.956,0l0,-11.851l8.75,-7.083l9.235,-0Z" style="fill:#fff;"/><path d="M48.39,20.657l-0.68,5.538l9.876,-0l5.782,4.669l0.176,12.219l10.924,0.15c-0,-0 0.384,-6.972 0.066,-8.367c-0.089,-0.392 -4.85,-0.961 -4.85,-0.961c-0.917,5.915 0.718,5.017 2.788,3.081c0,-0 1.226,2.286 -0.113,2.645c-1.644,0.441 -5.984,-0 -5.984,-0l0,-11.876l-8.789,-7.098l-9.196,-0Z" style="fill:#fff;"/><rect x="50.362" y="64.057" width="7.161" height="5.536" style="fill:#fff;"/><rect x="53.459" y="62.461" width="4.064" height="7.132" style="fill:#fff;"/></g><g id="heavy-bowgun"></g><g id="bow"></g></svg>