<?xml version="1.0" encoding="UTF-8" standalone="no"?><!DOCTYPE svg PUBLIC "-//W3C//DTD SVG 1.1//EN" "http://www.w3.org/Graphics/SVG/1.1/DTD/svg11.dtd"><svg width="100%" height="100%" viewBox="0 0 96 96" version="1.1" xmlns="http://www.w3.org/2000/svg" xmlns:xlink="http://www.w3.org/1999/xlink" xml:space="preserve" xmlns:serif="http://www.serif.com/" style="fill-rule:evenodd;clip-rule:evenodd;stroke-linejoin:round;stroke-miterlimit:2;"><rect id="Artboard1" x="-220" y="-189" width="1066.03" height="345.855" style="fill:none;"/><g id="greatsword"></g><g id="longsword"></g><g id="sword_and_shield"></g><g id="dual_blades"></g><g id="hammer"></g><g id="hunting_horn"></g><g id="lance"></g><g id="gun_lance"></g><g id="switch_axe"><rect x="40.856" y="55.45" width="2.943" height="12.894" style="fill:#fff;"/><rect x="43.799" y="45.693" width="4.68" height="35.24" style="fill:#fff;"/><rect x="40.856" y="79.428" width="10.565" height="6.676" style="fill:#fff;"/><rect x="40.856" y="45.693" width="10.565" height="7.528" style="fill:#fff;"/><rect x="37.812" y="53.221" width="13.609" height="2.229" style="fill:#fff;"/><rect x="55.816" y="23.203" width="6.394" height="5.227" style="fill:#fff;"/><rect x="55.816" y="33.964" width="6.394" height="5.496" style="fill:#fff;"/><path d="M77.162,8.735l-0,31.496l-18.149,15.219l0,-46.715l18.149,0Z" style="fill:#fff;"/><rect x="36.462" y="16.087" width="19.354" height="29.606" style="fill:#fff;"/><rect x="26.921" y="19.74" width="9.541" height="6.926" style="fill:#fff;"/><rect x="26.921" y="32.653" width="9.541" height="6.807" style="fill:#fff;"/><path d="M29.901,19.74l0,33.798l4.771,7.973l-10.732,0l-4.77,-7.973l-0,-33.798l10.731,0Z" style="fill:#fff;"/></g><g id="charge_blade"></g><g id="insect_glaive"></g><g id="light_bowgun"></g><g id="heavy-bowgun"></g><g id="bow"></g></svg>